<?xml version="1.0" encoding="UTF-8" standalone="yes"?>
<!DOCTYPE svg PUBLIC "-//W3C//DTD SVG 1.0//EN" "http://www.w3.org/TR/2001/REC-SVG-20010904/DTD/svg10.dtd">
<svg height="600" width="1000" xmlns="http://www.w3.org/2000/svg" xmlns:svg="http://www.w3.org/2000/svg" xmlns:xlink="http://www.w3.org/1999/xlink">
	<rect height="10" rx="2.5" ry="2.5" style="fill:deepskyblue" width="235.243334720738" x="10" y="200" />
	<rect height="10" rx="2.5" ry="2.5" style="fill:aqua" width="161.086959157856" x="248.743334720738" y="200" />
	<rect height="10" rx="2.5" ry="2.5" style="fill:bisque" width="146.93109649784" x="413.330293878594" y="200" />
	<rect height="10" rx="2.5" ry="2.5" style="fill:blueviolet" width="118.139166278849" x="563.761390376435" y="200" />
	<rect height="10" rx="2.5" ry="2.5" style="fill:gold" width="51.4086811677799" x="685.400556655283" y="200" />
	<rect height="10" rx="2.5" ry="2.5" style="fill:green" width="47.6882771379692" x="740.309237823063" y="200" />
	<rect height="10" rx="2.5" ry="2.5" style="fill:greenyellow" width="34.8806820788789" x="791.497514961032" y="200" />
	<rect height="10" rx="2.5" ry="2.5" style="fill:hkaki" width="26.4115062302131" x="829.878197039911" y="200" />
	<rect height="10" rx="2.5" ry="2.5" style="fill:orangered" width="20.7307391045011" x="859.789703270124" y="200" />
	<rect height="10" rx="2.5" ry="2.5" style="fill:olive" width="17.17324482345" x="884.020442374626" y="200" />
	<rect height="10" rx="2.5" ry="2.5" style="fill:orange" width="2.90609207343851" x="904.693687198076" y="200" />
	<rect height="10" rx="2.5" ry="2.5" style="fill:mediumblue" width="2.03234647326023" x="911.099779271514" y="200" />
	<rect height="10" rx="2.5" ry="2.5" style="fill:palegreen" width="121.162704915346" x="10" y="350" />
	<rect height="10" rx="2.5" ry="2.5" style="fill:deeppink" width="70.9817665489011" x="134.662704915346" y="350" />
	<rect height="10" rx="2.5" ry="2.5" style="fill:deepskyblue" width="58.9797223114386" x="209.144471464248" y="350" />
	<rect height="10" rx="2.5" ry="2.5" style="fill:aqua" width="38.4926374678002" x="271.624193775686" y="350" />
	<rect height="10" rx="2.5" ry="2.5" style="fill:bisque" width="37.4337241008633" x="313.616831243486" y="350" />
	<rect height="10" rx="2.5" ry="2.5" style="fill:blueviolet" width="37.1086149656208" x="354.55055534435" y="350" />
	<rect height="10" rx="2.5" ry="2.5" style="fill:gold" width="36.0854564999377" x="395.15917030997" y="350" />
	<rect height="10" rx="2.5" ry="2.5" style="fill:green" width="31.671265313346" x="434.744626809908" y="350" />
	<rect height="10" rx="2.5" ry="2.5" style="fill:greenyellow" width="27.4514766031082" x="469.915892123254" y="350" />
	<rect height="10" rx="2.5" ry="2.5" style="fill:hkaki" width="23.0623848836218" x="500.867368726362" y="350" />
	<rect height="10" rx="2.5" ry="2.5" style="fill:orangered" width="23.0602537967921" x="527.429753609984" y="350" />
	<rect height="10" rx="2.5" ry="2.5" style="fill:olive" width="22.9802196469655" x="553.990007406776" y="350" />
	<rect height="10" rx="2.5" ry="2.5" style="fill:orange" width="19.775538629943" x="580.470227053742" y="350" />
	<rect height="10" rx="2.5" ry="2.5" style="fill:mediumblue" width="19.6869801327976" x="603.745765683685" y="350" />
	<rect height="10" rx="2.5" ry="2.5" style="fill:palegreen" width="16.5313141128583" x="626.932745816482" y="350" />
	<rect height="10" rx="2.5" ry="2.5" style="fill:deeppink" width="15.8664150219909" x="646.964059929341" y="350" />
	<rect height="10" rx="2.5" ry="2.5" style="fill:deepskyblue" width="15.6118685395542" x="666.330474951332" y="350" />
	<rect height="10" rx="2.5" ry="2.5" style="fill:aqua" width="15.2597656378021" x="685.442343490886" y="350" />
	<rect height="10" rx="2.5" ry="2.5" style="fill:bisque" width="15.2079091916126" x="704.202109128688" y="350" />
	<rect height="10" rx="2.5" ry="2.5" style="fill:blueviolet" width="14.5832639630841" x="722.9100183203" y="350" />
	<rect height="10" rx="2.5" ry="2.5" style="fill:gold" width="12.740821005093" x="740.993282283384" y="350" />
	<rect height="10" rx="2.5" ry="2.5" style="fill:green" width="12.4554921573383" x="757.234103288477" y="350" />
	<rect height="10" rx="2.5" ry="2.5" style="fill:greenyellow" width="8.29561066575775" x="773.189595445816" y="350" />
	<rect height="10" rx="2.5" ry="2.5" style="fill:hkaki" width="7.23575014911872" x="784.985206111573" y="350" />
	<rect height="10" rx="2.5" ry="2.5" style="fill:orangered" width="6.06483632990961" x="795.720956260692" y="350" />
	<rect height="10" rx="2.5" ry="2.5" style="fill:olive" width="5.98196073097671" x="805.285792590602" y="350" />
	<rect height="10" rx="2.5" ry="2.5" style="fill:orange" width="5.55716408958922" x="814.767753321579" y="350" />
	<rect height="10" rx="2.5" ry="2.5" style="fill:mediumblue" width="5.48399677510274" x="823.824917411168" y="350" />
	<rect height="10" rx="2.5" ry="2.5" style="fill:palegreen" width="4.94814683114517" x="832.808914186271" y="350" />
	<rect height="10" rx="2.5" ry="2.5" style="fill:deeppink" width="4.7722137739819" x="841.257061017416" y="350" />
	<rect height="10" rx="2.5" ry="2.5" style="fill:deepskyblue" width="4.61238226175416" x="849.529274791398" y="350" />
	<rect height="10" rx="2.5" ry="2.5" style="fill:aqua" width="2.10267233864043" x="857.641657053152" y="350" />
	<rect height="10" rx="2.5" ry="2.5" style="fill:bisque" width="1.81781706573678" x="863.244329391792" y="350" />
	<rect height="10" rx="2.5" ry="2.5" style="fill:blueviolet" width="0.120761587016511" x="868.562146457529" y="350" />
	<line stroke-width="2" style="stroke:rgb(255,20,147)" x1="905.037502539934" x2="749.092359385959" y1="210" y2="350" />
	<line stroke-width="2" style="stroke:rgb(255,20,147)" x1="905.503263405937" x2="749.558120251961" y1="210" y2="350" />
	<line stroke-width="2" style="stroke:rgb(255,20,147)" x1="324.131004896338" x2="811.188666321454" y1="210" y2="350" />
	<line stroke-width="2" style="stroke:rgb(255,20,147)" x1="324.211512621016" x2="811.267753321579" y1="210" y2="350" />
	<line stroke-width="2" style="stroke:rgb(255,20,147)" x1="327.284776616873" x2="810.45746675144" y1="210" y2="350" />
	<line stroke-width="2" style="stroke:rgb(255,20,147)" x1="327.313664682787" x2="810.486118029929" y1="210" y2="350" />
	<line stroke-width="2" style="stroke:rgb(255,20,147)" x1="348.281664787661" x2="809.641734070515" y1="210" y2="350" />
	<line stroke-width="2" style="stroke:rgb(255,20,147)" x1="348.468016491548" x2="809.868576424166" y1="210" y2="350" />
	<line stroke-width="2" style="stroke:rgb(255,20,147)" x1="352.141063036254" x2="809.642681220217" y1="210" y2="350" />
	<line stroke-width="2" style="stroke:rgb(255,20,147)" x1="352.348962395863" x2="809.864314250506" y1="210" y2="350" />
	<line stroke-width="2" style="stroke:rgb(255,20,147)" x1="368.692740867707" x2="809.634156872898" y1="210" y2="350" />
	<line stroke-width="2" style="stroke:rgb(255,20,147)" x1="368.961494595675" x2="809.876863984059" y1="210" y2="350" />
	<line stroke-width="2" style="stroke:rgb(255,20,147)" x1="393.495039754069" x2="807.305352542884" y1="210" y2="350" />
	<line stroke-width="2" style="stroke:rgb(255,20,147)" x1="393.724013194549" x2="807.539061731875" y1="210" y2="350" />
	<line stroke-width="2" style="stroke:rgb(255,20,147)" x1="396.914013391189" x2="807.305352542884" y1="210" y2="350" />
	<line stroke-width="2" style="stroke:rgb(255,20,147)" x1="397.118360939415" x2="807.543087118109" y1="210" y2="350" />
	<line stroke-width="2" style="stroke:rgb(70,130,180)" x1="276.353222111521" x2="10" y1="210" y2="350" />
	<line stroke-width="2" style="stroke:rgb(70,130,180)" x1="380.739537928593" x2="114.396734463795" y1="210" y2="350" />
	<line stroke-width="2" style="stroke:rgb(70,130,180)" x1="380.739774716019" x2="114.396971251221" y1="210" y2="350" />
	<line stroke-width="2" style="stroke:rgb(70,130,180)" x1="397.506455529847" x2="131.162704915346" y1="210" y2="350" />
	<line stroke-width="2" style="stroke:rgb(255,20,147)" x1="248.822421720863" x2="496.947781408336" y1="210" y2="350" />
	<line stroke-width="2" style="stroke:rgb(255,20,147)" x1="249.174051047764" x2="497.367368726362" y1="210" y2="350" />
	<line stroke-width="2" style="stroke:rgb(255,20,147)" x1="248.899377634158" x2="469.91612891068" y1="210" y2="350" />
	<line stroke-width="2" style="stroke:rgb(255,20,147)" x1="276.34801278816" x2="497.366658364086" y1="210" y2="350" />
	<line stroke-width="2" style="stroke:rgb(70,130,180)" x1="397.505981954996" x2="553.990007406776" y1="210" y2="350" />
	<line stroke-width="2" style="stroke:rgb(70,130,180)" x1="409.809219797723" x2="566.249913150633" y1="210" y2="350" />
	<line stroke-width="2" style="stroke:rgb(70,130,180)" x1="862.227666603305" x2="740.993992645661" y1="210" y2="350" />
	<line stroke-width="2" style="stroke:rgb(70,130,180)" x1="874.967540458696" x2="753.734103288477" y1="210" y2="350" />
	<line stroke-width="2" style="stroke:rgb(255,20,147)" x1="878.527876188853" x2="717.847221311851" y1="210" y2="350" />
	<line stroke-width="2" style="stroke:rgb(255,20,147)" x1="878.758980716163" x2="718.083061587672" y1="210" y2="350" />
	<line stroke-width="2" style="stroke:rgb(255,20,147)" x1="876.991836159488" x2="835.753365822644" y1="210" y2="350" />
	<line stroke-width="2" style="stroke:rgb(255,20,147)" x1="877.235490420351" x2="835.956292646317" y1="210" y2="350" />
	<line stroke-width="2" style="stroke:rgb(255,20,147)" x1="874.950254976633" x2="859.09766293269" y1="210" y2="350" />
	<line stroke-width="2" style="stroke:rgb(255,20,147)" x1="875.204327884218" x2="859.327583522873" y1="210" y2="350" />
	<line stroke-width="2" style="stroke:rgb(255,20,147)" x1="873.836880501825" x2="790.721381494858" y1="210" y2="350" />
	<line stroke-width="2" style="stroke:rgb(255,20,147)" x1="873.937278370247" x2="790.819411489024" y1="210" y2="350" />
	<line stroke-width="2" style="stroke:rgb(255,20,147)" x1="873.846588786272" x2="788.365820185759" y1="210" y2="350" />
	<line stroke-width="2" style="stroke:rgb(255,20,147)" x1="874.024179355414" x2="788.538675006391" y1="210" y2="350" />
	<line stroke-width="2" style="stroke:rgb(255,20,147)" x1="791.497514961032" x2="853.927127645628" y1="210" y2="350" />
	<line stroke-width="2" style="stroke:rgb(255,20,147)" x1="791.526876601797" x2="853.955542136691" y1="210" y2="350" />
	<line stroke-width="2" style="stroke:rgb(255,20,147)" x1="791.864061895741" x2="852.380905756966" y1="210" y2="350" />
	<line stroke-width="2" style="stroke:rgb(255,20,147)" x1="791.984113120481" x2="852.499062682302" y1="210" y2="350" />
	<line stroke-width="2" style="stroke:rgb(70,130,180)" x1="803.314865006587" x2="527.429753609984" y1="210" y2="350" />
	<line stroke-width="2" style="stroke:rgb(70,130,180)" x1="826.355702234487" x2="550.490007406776" y1="210" y2="350" />
	<line stroke-width="2" style="stroke:rgb(255,20,147)" x1="686.27122401893" x2="171.875269560772" y1="210" y2="350" />
	<line stroke-width="2" style="stroke:rgb(255,20,147)" x1="686.430108381456" x2="172.03983682151" y1="210" y2="350" />
	<line stroke-width="2" style="stroke:rgb(255,20,147)" x1="686.480307315666" x2="171.844487195454" y1="210" y2="350" />
	<line stroke-width="2" style="stroke:rgb(255,20,147)" x1="686.521508327707" x2="171.884030695516" y1="210" y2="350" />
	<line stroke-width="2" style="stroke:rgb(255,20,147)" x1="698.927748700537" x2="164.070992802973" y1="210" y2="350" />
	<line stroke-width="2" style="stroke:rgb(255,20,147)" x1="699.11267967987" x2="164.256634144583" y1="210" y2="350" />
	<line stroke-width="2" style="stroke:rgb(255,20,147)" x1="733.849631791457" x2="156.798303815473" y1="210" y2="350" />
	<line stroke-width="2" style="stroke:rgb(255,20,147)" x1="734.105598998447" x2="157.055928534442" y1="210" y2="350" />
	<line stroke-width="2" style="stroke:rgb(70,130,180)" x1="686.270750444079" x2="585.204081264789" y1="210" y2="350" />
	<line stroke-width="2" style="stroke:rgb(70,130,180)" x1="686.52292905226" x2="585.396826229164" y1="210" y2="350" />
	<line stroke-width="2" style="stroke:rgb(255,20,147)" x1="430.135334255357" x2="807.312219378224" y1="210" y2="350" />
	<line stroke-width="2" style="stroke:rgb(255,20,147)" x1="430.334709267647" x2="807.542376755832" y1="210" y2="350" />
	<line stroke-width="2" style="stroke:rgb(70,130,180)" x1="508.397130201949" x2="395.159407097396" y1="210" y2="350" />
	<line stroke-width="2" style="stroke:rgb(70,130,180)" x1="544.488506387525" x2="431.244626809908" y1="210" y2="350" />
	<line stroke-width="2" style="stroke:rgb(70,130,180)" x1="435.055776957716" x2="570.064558575801" y1="210" y2="350" />
	<line stroke-width="2" style="stroke:rgb(70,130,180)" x1="435.277883562856" x2="570.246174531177" y1="210" y2="350" />
	<line stroke-width="2" style="stroke:rgb(70,130,180)" x1="460.154296913406" x2="572.581372121681" y1="210" y2="350" />
	<line stroke-width="2" style="stroke:rgb(70,130,180)" x1="460.383033566461" x2="572.806793750778" y1="210" y2="350" />
	<line stroke-width="2" style="stroke:rgb(70,130,180)" x1="482.919040003146" x2="572.584213570787" y1="210" y2="350" />
	<line stroke-width="2" style="stroke:rgb(70,130,180)" x1="483.176664722115" x2="572.811529499289" y1="210" y2="350" />
	<line stroke-width="2" style="stroke:rgb(70,130,180)" x1="496.887130234723" x2="572.595816154638" y1="210" y2="350" />
	<line stroke-width="2" style="stroke:rgb(70,130,180)" x1="497.097634256012" x2="572.806793750778" y1="210" y2="350" />
	<line stroke-width="2" style="stroke:rgb(255,20,147)" x1="431.423694637625" x2="267.280046603698" y1="210" y2="350" />
	<line stroke-width="2" style="stroke:rgb(255,20,147)" x1="431.635856170893" x2="267.489129900435" y1="210" y2="350" />
	<line stroke-width="2" style="stroke:rgb(255,20,147)" x1="487.858899274398" x2="262.967674010081" y1="210" y2="350" />
	<line stroke-width="2" style="stroke:rgb(255,20,147)" x1="487.888260915163" x2="262.99679886342" y1="210" y2="350" />
	<line stroke-width="2" style="stroke:rgb(255,20,147)" x1="491.996759535405" x2="261.788235843553" y1="210" y2="350" />
	<line stroke-width="2" style="stroke:rgb(255,20,147)" x1="492.228811212417" x2="262.039467302033" y1="210" y2="350" />
	<line stroke-width="2" style="stroke:rgb(255,20,147)" x1="493.150861447402" x2="261.797707340574" y1="210" y2="350" />
	<line stroke-width="2" style="stroke:rgb(255,20,147)" x1="493.356866507607" x2="262.001818101375" y1="210" y2="350" />
	<line stroke-width="2" style="stroke:rgb(255,20,147)" x1="498.633200710526" x2="259.159421845402" y1="210" y2="350" />
	<line stroke-width="2" style="stroke:rgb(255,20,147)" x1="498.648118318334" x2="259.174339453209" y1="210" y2="350" />
	<line stroke-width="2" style="stroke:rgb(255,20,147)" x1="500.845505627183" x2="257.674054325098" y1="210" y2="350" />
	<line stroke-width="2" style="stroke:rgb(255,20,147)" x1="500.876524779927" x2="257.702705603587" y1="210" y2="350" />
	<line stroke-width="2" style="stroke:rgb(255,20,147)" x1="517.303178850704" x2="256.092314322608" y1="210" y2="350" />
	<line stroke-width="2" style="stroke:rgb(255,20,147)" x1="517.621421150607" x2="256.409846260234" y1="210" y2="350" />
	<line stroke-width="2" style="stroke:rgb(255,20,147)" x1="528.1987154487" x2="249.031076506099" y1="210" y2="350" />
	<line stroke-width="2" style="stroke:rgb(255,20,147)" x1="528.45255156886" x2="249.288701225068" y1="210" y2="350" />
	<line stroke-width="2" style="stroke:rgb(70,130,180)" x1="556.267023295294" x2="732.381041766352" y1="210" y2="350" />
	<line stroke-width="2" style="stroke:rgb(70,130,180)" x1="556.480842340541" x2="732.588941125961" y1="210" y2="350" />
	<line stroke-width="2" style="stroke:rgb(255,20,147)" x1="767.129912724579" x2="155.926689302124" y1="210" y2="350" />
	<line stroke-width="2" style="stroke:rgb(255,20,147)" x1="767.334970635082" x2="156.127248251542" y1="210" y2="350" />
	<line stroke-width="2" style="stroke:rgb(255,20,147)" x1="768.375177795402" x2="155.220825986642" y1="210" y2="350" />
	<line stroke-width="2" style="stroke:rgb(255,20,147)" x1="768.609834134095" x2="155.45785019959" y1="210" y2="350" />
	<line stroke-width="2" style="stroke:rgb(255,20,147)" x1="772.446027214987" x2="154.031679535667" y1="210" y2="350" />
	<line stroke-width="2" style="stroke:rgb(255,20,147)" x1="772.681867490807" x2="154.2732027097" y1="210" y2="350" />
	<line stroke-width="2" style="stroke:rgb(255,20,147)" x1="781.421217791994" x2="150.410489437151" y1="210" y2="350" />
	<line stroke-width="2" style="stroke:rgb(255,20,147)" x1="781.650191232474" x2="150.638515727929" y1="210" y2="350" />
	<line stroke-width="2" style="stroke:rgb(255,20,147)" x1="784.005278966722" x2="149.125680866265" y1="210" y2="350" />
	<line stroke-width="2" style="stroke:rgb(255,20,147)" x1="784.162269029843" x2="149.328134115087" y1="210" y2="350" />
	<line stroke-width="2" style="stroke:rgb(70,130,180)" x1="774.469375766077" x2="586.7609585876" y1="210" y2="350" />
	<line stroke-width="2" style="stroke:rgb(70,130,180)" x1="774.483346224183" x2="586.774929045706" y1="210" y2="350" />
	<line stroke-width="2" style="stroke:rgb(70,130,180)" x1="781.419797067441" x2="589.166482043484" y1="210" y2="350" />
	<line stroke-width="2" style="stroke:rgb(70,130,180)" x1="781.453420881865" x2="589.199632283057" y1="210" y2="350" />
	<line stroke-width="2" style="stroke:rgb(70,130,180)" x1="781.602123385093" x2="589.196790833951" y1="210" y2="350" />
	<line stroke-width="2" style="stroke:rgb(70,130,180)" x1="781.638825436049" x2="589.234203247183" y1="210" y2="350" />
	<line stroke-width="2" style="stroke:rgb(70,130,180)" x1="830.035660677884" x2="667.567926037113" y1="210" y2="350" />
	<line stroke-width="2" style="stroke:rgb(70,130,180)" x1="830.056261183904" x2="667.588526543133" y1="210" y2="350" />
	<line stroke-width="2" style="stroke:rgb(255,20,147)" x1="835.822034995379" x2="666.330474951332" y1="210" y2="350" />
	<line stroke-width="2" style="stroke:rgb(255,20,147)" x1="851.461607663719" x2="681.942343490886" y1="210" y2="350" />
	<line stroke-width="2" style="stroke:rgb(70,130,180)" x1="853.263086397095" x2="705.08461586361" y1="210" y2="350" />
	<line stroke-width="2" style="stroke:rgb(70,130,180)" x1="853.295526274391" x2="705.118002890609" y1="210" y2="350" />
	<line stroke-width="2" style="stroke:rgb(70,130,180)" x1="839.330751066772" x2="859.096952570414" y1="210" y2="350" />
	<line stroke-width="2" style="stroke:rgb(70,130,180)" x1="839.573931752784" x2="859.320953474958" y1="210" y2="350" />
	<line stroke-width="2" style="stroke:rgb(70,130,180)" x1="839.330040704496" x2="835.74247360107" y1="210" y2="350" />
	<line stroke-width="2" style="stroke:rgb(70,130,180)" x1="839.573931752784" x2="835.961975544529" y1="210" y2="350" />
	<line stroke-width="2" style="stroke:rgb(70,130,180)" x1="830.2130144596" x2="814.777461606025" y1="210" y2="350" />
	<line stroke-width="2" style="stroke:rgb(70,130,180)" x1="835.769231399487" x2="820.324917411168" y1="210" y2="350" />
	<line stroke-width="2" style="stroke:rgb(255,20,147)" x1="911.37871485878" x2="746.482014806998" y1="210" y2="350" />
	<line stroke-width="2" style="stroke:rgb(255,20,147)" x1="911.448330361883" x2="746.551393522676" y1="210" y2="350" />
	<line stroke-width="2" style="stroke:rgb(255,20,147)" x1="579.678241120062" x2="202.141201503641" y1="210" y2="350" />
	<line stroke-width="2" style="stroke:rgb(255,20,147)" x1="579.712812084188" x2="202.175535680342" y1="210" y2="350" />
	<line stroke-width="2" style="stroke:rgb(255,20,147)" x1="597.545273100293" x2="201.921699560182" y1="210" y2="350" />
	<line stroke-width="2" style="stroke:rgb(255,20,147)" x1="597.79295274739" x2="202.181218578554" y1="210" y2="350" />
	<line stroke-width="2" style="stroke:rgb(255,20,147)" x1="621.789937599549" x2="201.908439464352" y1="210" y2="350" />
	<line stroke-width="2" style="stroke:rgb(255,20,147)" x1="622.032407923284" x2="202.181692153405" y1="210" y2="350" />
	<line stroke-width="2" style="stroke:rgb(255,20,147)" x1="624.321431965811" x2="201.917674173948" y1="210" y2="350" />
	<line stroke-width="2" style="stroke:rgb(255,20,147)" x1="624.548037532036" x2="202.175298892916" y1="210" y2="350" />
	<line stroke-width="2" style="stroke:rgb(255,20,147)" x1="626.822143966755" x2="185.032599647359" y1="210" y2="350" />
	<line stroke-width="2" style="stroke:rgb(255,20,147)" x1="627.044960934171" x2="185.250680866265" y1="210" y2="350" />
	<line stroke-width="2" style="stroke:rgb(255,20,147)" x1="631.291980198344" x2="180.913682380394" y1="210" y2="350" />
	<line stroke-width="2" style="stroke:rgb(255,20,147)" x1="631.324656863066" x2="180.946359045116" y1="210" y2="350" />
	<line stroke-width="2" style="stroke:rgb(255,20,147)" x1="639.567937507784" x2="179.183239874675" y1="210" y2="350" />
	<line stroke-width="2" style="stroke:rgb(255,20,147)" x1="639.751447762564" x2="179.375037689348" y1="210" y2="350" />
	<line stroke-width="2" style="stroke:rgb(255,20,147)" x1="643.991363403971" x2="179.131383428485" y1="210" y2="350" />
	<line stroke-width="2" style="stroke:rgb(255,20,147)" x1="644.232413003153" x2="179.37385375222" y1="210" y2="350" />
	<line stroke-width="2" style="stroke:rgb(255,20,147)" x1="655.45732091005" x2="179.140854925506" y1="210" y2="350" />
	<line stroke-width="2" style="stroke:rgb(255,20,147)" x1="655.669008868467" x2="179.371959452816" y1="210" y2="350" />
	<line stroke-width="2" style="stroke:rgb(255,20,147)" x1="666.556021119144" x2="176.106424067434" y1="210" y2="350" />
	<line stroke-width="2" style="stroke:rgb(255,20,147)" x1="666.582778098228" x2="176.132944259093" y1="210" y2="350" />
	<line stroke-width="2" style="stroke:rgb(255,20,147)" x1="666.614507613248" x2="175.951328303717" y1="210" y2="350" />
	<line stroke-width="2" style="stroke:rgb(255,20,147)" x1="666.775996637455" x2="176.110449453668" y1="210" y2="350" />
	<line stroke-width="2" style="stroke:rgb(255,20,147)" x1="677.08927295609" x2="175.943040743824" y1="210" y2="350" />
	<line stroke-width="2" style="stroke:rgb(255,20,147)" x1="677.259523115041" x2="176.110449453668" y1="210" y2="350" />
	<line stroke-width="2" style="stroke:rgb(70,130,180)" x1="563.788384142944" x2="271.624193775686" y1="210" y2="350" />
	<line stroke-width="2" style="stroke:rgb(70,130,180)" x1="601.514303926902" x2="309.356033245282" y1="210" y2="350" />
	<line stroke-width="2" style="stroke:rgb(70,130,180)" x1="601.512646414924" x2="309.435357032832" y1="210" y2="350" />
	<line stroke-width="2" style="stroke:rgb(70,130,180)" x1="602.076437275093" x2="309.998674318151" y1="210" y2="350" />
	<line stroke-width="2" style="stroke:rgb(70,130,180)" x1="602.203118547747" x2="310.026852021788" y1="210" y2="350" />
	<line stroke-width="2" style="stroke:rgb(70,130,180)" x1="602.236742362172" x2="310.06165977334" y1="210" y2="350" />
	<line stroke-width="2" style="stroke:rgb(70,130,180)" x1="655.456847335199" x2="582.892799204263" y1="210" y2="350" />
	<line stroke-width="2" style="stroke:rgb(70,130,180)" x1="655.674928554105" x2="583.103776800404" y1="210" y2="350" />
	<line stroke-width="2" style="stroke:rgb(70,130,180)" x1="672.612806676586" x2="582.895167078518" y1="210" y2="350" />
	<line stroke-width="2" style="stroke:rgb(70,130,180)" x1="672.850304464385" x2="583.094542090808" y1="210" y2="350" />
	<line stroke-width="2" style="stroke:rgb(70,130,180)" x1="677.233713285659" x2="584.256221200422" y1="210" y2="350" />
	<line stroke-width="2" style="stroke:rgb(70,130,180)" x1="677.255497728807" x2="584.27800564357" y1="210" y2="350" />
	<line stroke-width="2" style="stroke:rgb(255,20,147)" x1="160.045324718313" x2="685.442343490886" y1="210" y2="350" />
	<line stroke-width="2" style="stroke:rgb(255,20,147)" x1="175.306511080668" x2="700.702109128688" y1="210" y2="350" />
	<line stroke-width="2" style="stroke:rgb(255,20,147)" x1="74.0955146398537" x2="843.372283089609" y1="210" y2="350" />
	<line stroke-width="2" style="stroke:rgb(255,20,147)" x1="74.1075907985553" x2="843.384359248311" y1="210" y2="350" />
	<line stroke-width="2" style="stroke:rgb(255,20,147)" x1="74.1994643196581" x2="843.23897176904" y1="210" y2="350" />
	<line stroke-width="2" style="stroke:rgb(255,20,147)" x1="74.2998621880797" x2="843.365653041694" y1="210" y2="350" />
	<line stroke-width="2" style="stroke:rgb(255,20,147)" x1="75.6523919626646" x2="841.272452200075" y1="210" y2="350" />
	<line stroke-width="2" style="stroke:rgb(255,20,147)" x1="75.8382700916998" x2="841.43346764943" y1="210" y2="350" />
	<line stroke-width="2" style="stroke:rgb(255,20,147)" x1="66.3423839659682" x2="616.19557494281" y1="210" y2="350" />
	<line stroke-width="2" style="stroke:rgb(255,20,147)" x1="66.5543087118109" x2="616.439229203673" y1="210" y2="350" />
	<line stroke-width="2" style="stroke:rgb(255,20,147)" x1="68.9491767335462" x2="610.170282112963" y1="210" y2="350" />
	<line stroke-width="2" style="stroke:rgb(255,20,147)" x1="68.9733290509494" x2="610.194434430367" y1="210" y2="350" />
	<line stroke-width="2" style="stroke:rgb(255,20,147)" x1="70.3843453196384" x2="609.949596232376" y1="210" y2="350" />
	<line stroke-width="2" style="stroke:rgb(255,20,147)" x1="70.6237374068418" x2="610.191119406409" y1="210" y2="350" />
	<line stroke-width="2" style="stroke:rgb(255,20,147)" x1="194.401049074808" x2="343.61282552126" y1="210" y2="350" />
	<line stroke-width="2" style="stroke:rgb(255,20,147)" x1="195.099098405249" x2="344.290747920531" y1="210" y2="350" />
	<line stroke-width="2" style="stroke:rgb(255,20,147)" x1="206.863644854912" x2="332.288230108218" y1="210" y2="350" />
	<line stroke-width="2" style="stroke:rgb(255,20,147)" x1="206.977539606589" x2="332.401414497617" y1="210" y2="350" />
	<line stroke-width="2" style="stroke:rgb(255,20,147)" x1="226.185261990129" x2="305.383924182141" y1="210" y2="350" />
	<line stroke-width="2" style="stroke:rgb(255,20,147)" x1="226.44170277197" x2="305.639891389131" y1="210" y2="350" />
	<line stroke-width="2" style="stroke:rgb(255,20,147)" x1="226.243985271658" x2="304.399125279393" y1="210" y2="350" />
	<line stroke-width="2" style="stroke:rgb(255,20,147)" x1="226.426074801885" x2="304.581688384471" y1="210" y2="350" />
	<line stroke-width="2" style="stroke:rgb(255,20,147)" x1="227.364226581806" x2="302.214524491522" y1="210" y2="350" />
	<line stroke-width="2" style="stroke:rgb(255,20,147)" x1="227.396666459102" x2="302.246254006542" y1="210" y2="350" />
	<line stroke-width="2" style="stroke:rgb(255,20,147)" x1="231.676599175423" x2="290.79521410827" y1="210" y2="350" />
	<line stroke-width="2" style="stroke:rgb(255,20,147)" x1="231.88828713384" x2="291.009033153517" y1="210" y2="350" />
	<line stroke-width="2" style="stroke:rgb(255,20,147)" x1="234.857601449893" x2="287.526600486356" y1="210" y2="350" />
	<line stroke-width="2" style="stroke:rgb(255,20,147)" x1="234.911352195486" x2="287.576089058291" y1="210" y2="350" />
	<line stroke-width="2" style="stroke:rgb(255,20,147)" x1="236.597515452633" x2="280.684154251031" y1="210" y2="350" />
	<line stroke-width="2" style="stroke:rgb(255,20,147)" x1="236.83406609073" x2="280.928992449021" y1="210" y2="350" />
	<line stroke-width="2" style="stroke:rgb(255,20,147)" x1="236.605803012526" x2="283.713612573167" y1="210" y2="350" />
	<line stroke-width="2" style="stroke:rgb(255,20,147)" x1="236.822463506879" x2="283.92340623218" y1="210" y2="350" />
	<line stroke-width="2" style="stroke:rgb(255,20,147)" x1="237.940336942771" x2="273.45432378755" y1="210" y2="350" />
	<line stroke-width="2" style="stroke:rgb(255,20,147)" x1="238.155339925146" x2="273.670273919627" y1="210" y2="350" />
	<line stroke-width="2" style="stroke:rgb(255,20,147)" x1="104.930683553679" x2="463.786841337677" y1="210" y2="350" />
	<line stroke-width="2" style="stroke:rgb(255,20,147)" x1="104.951520847125" x2="463.807441843697" y1="210" y2="350" />
	<line stroke-width="2" style="stroke:rgb(255,20,147)" x1="104.962649856125" x2="463.620853352386" y1="210" y2="350" />
	<line stroke-width="2" style="stroke:rgb(255,20,147)" x1="104.982776787294" x2="463.640980283555" y1="210" y2="350" />
	<line stroke-width="2" style="stroke:rgb(255,20,147)" x1="137.935772434994" x2="463.416032229309" y1="210" y2="350" />
	<line stroke-width="2" style="stroke:rgb(255,20,147)" x1="138.101050058009" x2="463.584624876281" y1="210" y2="350" />
	<line stroke-width="2" style="stroke:rgb(255,20,147)" x1="141.153950335271" x2="455.106451105445" y1="210" y2="350" />
	<line stroke-width="2" style="stroke:rgb(255,20,147)" x1="141.173130116739" x2="455.125630886912" y1="210" y2="350" />
	<line stroke-width="2" style="stroke:rgb(255,20,147)" x1="146.11251581314" x2="451.908873711188" y1="210" y2="350" />
	<line stroke-width="2" style="stroke:rgb(255,20,147)" x1="146.281108460112" x2="452.074151334203" y1="210" y2="350" />
	<line stroke-width="2" style="stroke:rgb(255,20,147)" x1="238.718657210464" x2="585.215920636065" y1="210" y2="350" />
	<line stroke-width="2" style="stroke:rgb(255,20,147)" x1="238.908797513159" x2="585.388775456697" y1="210" y2="350" />
	<line stroke-width="2" style="stroke:rgb(255,20,147)" x1="88.9302468488428" x2="662.646727909126" y1="210" y2="350" />
	<line stroke-width="2" style="stroke:rgb(255,20,147)" x1="89.1137571036228" x2="662.830474951331" y1="210" y2="350" />
	<line stroke-width="2" style="stroke:rgb(255,20,147)" x1="91.5152551732727" x2="658.945977235634" y1="210" y2="350" />
	<line stroke-width="2" style="stroke:rgb(255,20,147)" x1="91.7134462484351" x2="659.175424250965" y1="210" y2="350" />
	<line stroke-width="2" style="stroke:rgb(255,20,147)" x1="93.8348247936918" x2="656.032781539429" y1="210" y2="350" />
	<line stroke-width="2" style="stroke:rgb(255,20,147)" x1="94.1594603540832" x2="656.357417099821" y1="210" y2="350" />
	<line stroke-width="2" style="stroke:rgb(255,20,147)" x1="98.6498970916933" x2="648.264970045162" y1="210" y2="350" />
	<line stroke-width="2" style="stroke:rgb(255,20,147)" x1="98.8452467177494" x2="648.458662159239" y1="210" y2="350" />
	<line stroke-width="2" style="stroke:rgb(255,20,147)" x1="100.959995215091" x2="647.164145303907" y1="210" y2="350" />
	<line stroke-width="2" style="stroke:rgb(255,20,147)" x1="101.085492550618" x2="647.290826576562" y1="210" y2="350" />
	<line stroke-width="2" style="stroke:rgb(255,20,147)" x1="146.315442636812" x2="523.385142531282" y1="210" y2="350" />
	<line stroke-width="2" style="stroke:rgb(255,20,147)" x1="146.50226791555" x2="523.589963654359" y1="210" y2="350" />
	<line stroke-width="2" style="stroke:rgb(255,20,147)" x1="149.726128714039" x2="521.361083617915" y1="210" y2="350" />
	<line stroke-width="2" style="stroke:rgb(255,20,147)" x1="149.937816672457" x2="521.57395551346" y1="210" y2="350" />
	<line stroke-width="2" style="stroke:rgb(255,20,147)" x1="149.752412118272" x2="515.00831377857" y1="210" y2="350" />
	<line stroke-width="2" style="stroke:rgb(255,20,147)" x1="149.930476262265" x2="515.152517320713" y1="210" y2="350" />
	<line stroke-width="2" style="stroke:rgb(255,20,147)" x1="149.803794989611" x2="516.36534251424" y1="210" y2="350" />
	<line stroke-width="2" style="stroke:rgb(255,20,147)" x1="149.930476262265" x2="516.468345044342" y1="210" y2="350" />
	<line stroke-width="2" style="stroke:rgb(255,20,147)" x1="152.171432457411" x2="511.443715874753" y1="210" y2="350" />
	<line stroke-width="2" style="stroke:rgb(255,20,147)" x1="152.32273962232" x2="511.598101276194" y1="210" y2="350" />
	<line stroke-width="2" style="stroke:rgb(255,20,147)" x1="155.037507455936" x2="503.467531446026" y1="210" y2="350" />
	<line stroke-width="2" style="stroke:rgb(255,20,147)" x1="155.087232815296" x2="503.518203955087" y1="210" y2="350" />
	<line stroke-width="2" style="stroke:rgb(255,20,147)" x1="75.651681600388" x2="826.29981958273" y1="210" y2="350" />
	<line stroke-width="2" style="stroke:rgb(255,20,147)" x1="75.8619488342521" x2="826.513401840551" y1="210" y2="350" />
	<line stroke-width="2" style="stroke:rgb(255,20,147)" x1="10.8308870761587" x2="130.560317704817" y1="210" y2="350" />
	<line stroke-width="2" style="stroke:rgb(255,20,147)" x1="10.8638005283063" x2="130.593231156965" y1="210" y2="350" />
	<line stroke-width="2" style="stroke:rgb(255,20,147)" x1="12.2286432490184" x2="108.810208733441" y1="210" y2="350" />
	<line stroke-width="2" style="stroke:rgb(255,20,147)" x1="12.4509866415841" x2="109.02710601522" y1="210" y2="350" />
	<line stroke-width="2" style="stroke:rgb(255,20,147)" x1="21.7664407490676" x2="102.366512522696" y1="210" y2="350" />
	<line stroke-width="2" style="stroke:rgb(255,20,147)" x1="22.0001499380584" x2="102.595722750601" y1="210" y2="350" />
	<line stroke-width="2" style="stroke:rgb(255,20,147)" x1="24.1014015521457" x2="87.8005340416746" y1="210" y2="350" />
	<line stroke-width="2" style="stroke:rgb(255,20,147)" x1="24.3284806932218" x2="88.0486872636222" y1="210" y2="350" />
	<line stroke-width="2" style="stroke:rgb(255,20,147)" x1="25.647149865957" x2="85.7973124217536" y1="210" y2="350" />
	<line stroke-width="2" style="stroke:rgb(255,20,147)" x1="25.851970989034" x2="85.9943195597884" y1="210" y2="350" />
	<line stroke-width="2" style="stroke:rgb(255,20,147)" x1="28.327346735447" x2="80.4430751558373" y1="210" y2="350" />
	<line stroke-width="2" style="stroke:rgb(255,20,147)" x1="28.5440072298002" x2="80.6831776053172" y1="210" y2="350" />
	<line stroke-width="2" style="stroke:rgb(255,20,147)" x1="30.5410723766575" x2="47.331668720463" y1="210" y2="350" />
	<line stroke-width="2" style="stroke:rgb(255,20,147)" x1="30.6239479755904" x2="47.4145443193959" y1="210" y2="350" />
	<line stroke-width="2" style="stroke:rgb(255,20,147)" x1="34.4312529905678" x2="42.721180758113" y1="210" y2="350" />
	<line stroke-width="2" style="stroke:rgb(255,20,147)" x1="34.658805706495" x2="42.9447080878064" y1="210" y2="350" />
	<line stroke-width="2" style="stroke:rgb(255,20,147)" x1="36.3044783138769" x2="37.3404233005381" y1="210" y2="350" />
	<line stroke-width="2" style="stroke:rgb(255,20,147)" x1="36.4595740775942" x2="37.4626056121078" y1="210" y2="350" />
	<line stroke-width="2" style="stroke:rgb(255,20,147)" x1="39.8648140440343" x2="34.3135696400831" y1="210" y2="350" />
	<line stroke-width="2" style="stroke:rgb(255,20,147)" x1="40.0672672928561" x2="34.4999213439694" y1="210" y2="350" />
	<line stroke-width="2" style="stroke:rgb(255,20,147)" x1="41.2256313785125" x2="27.7810781447664" y1="210" y2="350" />
	<line stroke-width="2" style="stroke:rgb(255,20,147)" x1="41.3149002379345" x2="27.8781609892307" y1="210" y2="350" />
	<line stroke-width="2" style="stroke:rgb(255,20,147)" x1="46.2206621199111" x2="27.6631580068562" y1="210" y2="350" />
	<line stroke-width="2" style="stroke:rgb(255,20,147)" x1="46.4304557789241" x2="27.886922123975" y1="210" y2="350" />
	<line stroke-width="2" style="stroke:rgb(255,20,147)" x1="47.3998634990135" x2="25.9440812975623" y1="210" y2="350" />
	<line stroke-width="2" style="stroke:rgb(255,20,147)" x1="47.5184939992003" x2="26.0693418456638" y1="210" y2="350" />
	<line stroke-width="2" style="stroke:rgb(255,20,147)" x1="241.321187804382" x2="537.92227800974" y1="210" y2="350" />
	<line stroke-width="2" style="stroke:rgb(255,20,147)" x1="241.521983541226" x2="538.141306378349" y1="210" y2="350" />
	<line stroke-width="2" style="stroke:rgb(255,20,147)" x1="241.325213190616" x2="536.045737662474" y1="210" y2="350" />
	<line stroke-width="2" style="stroke:rgb(255,20,147)" x1="241.526008927459" x2="536.257188833465" y1="210" y2="350" />
	<line stroke-width="2" style="stroke:rgb(255,20,147)" x1="213.427629077824" x2="414.960755556721" y1="210" y2="350" />
	<line stroke-width="2" style="stroke:rgb(255,20,147)" x1="213.685253796792" x2="415.214591676881" y1="210" y2="350" />
	<line stroke-width="2" style="stroke:rgb(255,20,147)" x1="220.488866894332" x2="404.065218958725" y1="210" y2="350" />
	<line stroke-width="2" style="stroke:rgb(255,20,147)" x1="220.806398831958" x2="404.383461258628" y1="210" y2="350" />
	<line stroke-width="2" style="stroke:rgb(255,20,147)" x1="220.492892280566" x2="400.216239356856" y1="210" y2="350" />
	<line stroke-width="2" style="stroke:rgb(255,20,147)" x1="220.814212817" x2="400.538033468141" y1="210" y2="350" />
	<line stroke-width="2" style="stroke:rgb(255,20,147)" x1="222.074632283057" x2="399.627585817007" y1="210" y2="350" />
	<line stroke-width="2" style="stroke:rgb(255,20,147)" x1="222.091207402843" x2="399.644160936793" y1="210" y2="350" />
	<line stroke-width="2" style="stroke:rgb(255,20,147)" x1="76.4347376165912" x2="863.552626619823" y1="210" y2="350" />
	<line stroke-width="2" style="stroke:rgb(255,20,147)" x1="76.5772836467558" x2="863.697303736817" y1="210" y2="350" />
	<line stroke-width="2" style="stroke:rgb(255,20,147)" x1="223.546029345254" x2="729.956101741576" y1="210" y2="350" />
	<line stroke-width="2" style="stroke:rgb(255,20,147)" x1="223.570181662657" x2="729.982621933234" y1="210" y2="350" />
	<line stroke-width="2" style="stroke:rgb(255,20,147)" x1="226.184788415278" x2="729.760278540668" y1="210" y2="350" />
	<line stroke-width="2" style="stroke:rgb(255,20,147)" x1="226.436019873757" x2="729.981201208681" y1="210" y2="350" />
	<line stroke-width="2" style="stroke:rgb(255,20,147)" x1="88.9034898697587" x2="767.720944790021" y1="210" y2="350" />
	<line stroke-width="2" style="stroke:rgb(255,20,147)" x1="89.1064166934316" x2="767.942104245459" y1="210" y2="350" />
	<line stroke-width="2" style="stroke:rgb(255,20,147)" x1="48.2418795841718" x2="382.907507062656" y1="210" y2="350" />
	<line stroke-width="2" style="stroke:rgb(255,20,147)" x1="48.4438592581425" x2="383.116353571967" y1="210" y2="350" />
	<line stroke-width="2" style="stroke:rgb(255,20,147)" x1="56.448458177933" x2="381.193166101873" y1="210" y2="350" />
	<line stroke-width="2" style="stroke:rgb(255,20,147)" x1="56.4858705911656" x2="381.23034172768" y1="210" y2="350" />
	<line stroke-width="2" style="stroke:rgb(255,20,147)" x1="57.4666441076801" x2="378.423937160386" y1="210" y2="350" />
	<line stroke-width="2" style="stroke:rgb(255,20,147)" x1="57.5203948532737" x2="378.480766142512" y1="210" y2="350" />
	<line stroke-width="2" style="stroke:rgb(255,20,147)" x1="58.6070123489968" x2="376.995398622209" y1="210" y2="350" />
	<line stroke-width="2" style="stroke:rgb(255,20,147)" x1="58.7256428491836" x2="377.114739484672" y1="210" y2="350" />
	<line stroke-width="2" style="stroke:rgb(255,20,147)" x1="59.6962345064006" x2="371.417870814024" y1="210" y2="350" />
	<line stroke-width="2" style="stroke:rgb(255,20,147)" x1="59.9036602911584" x2="371.658683625781" y1="210" y2="350" />
	<line stroke-width="2" style="stroke:rgb(255,20,147)" x1="62.0042015429691" x2="365.738761200291" y1="210" y2="350" />
	<line stroke-width="2" style="stroke:rgb(255,20,147)" x1="62.0461129172866" x2="365.782803661438" y1="210" y2="350" />
	<line stroke-width="2" style="stroke:rgb(255,20,147)" x1="64.1781468966919" x2="365.549094472447" y1="210" y2="350" />
	<line stroke-width="2" style="stroke:rgb(255,20,147)" x1="64.2641007321565" x2="365.634811520487" y1="210" y2="350" />
	<line stroke-width="2" style="stroke:rgb(255,20,147)" x1="890.072255396131" x2="626.956898133886" y1="210" y2="350" />
	<line stroke-width="2" style="stroke:rgb(255,20,147)" x1="890.131452252512" x2="627.041904819648" y1="210" y2="350" />
	<line stroke-width="2" style="stroke:rgb(255,20,147)" x1="891.449884637822" x2="778.401049894142" y1="210" y2="350" />
	<line stroke-width="2" style="stroke:rgb(255,20,147)" x1="891.658967934558" x2="778.633101571154" y1="210" y2="350" />
	<line stroke-width="2" style="stroke:rgb(255,20,147)" x1="890.102800974024" x2="801.461630605061" y1="210" y2="350" />
	<line stroke-width="2" style="stroke:rgb(255,20,147)" x1="890.129794740533" x2="801.488624371571" y1="210" y2="350" />
	<line stroke-width="2" style="stroke:rgb(255,20,147)" x1="887.854741156112" x2="713.020783217425" y1="210" y2="350" />
	<line stroke-width="2" style="stroke:rgb(255,20,147)" x1="888.072822375019" x2="713.266805352543" y1="210" y2="350" />
	<line stroke-width="2" style="stroke:rgb(255,20,147)" x1="887.859950479474" x2="706.926111671899" y1="210" y2="350" />
	<line stroke-width="2" style="stroke:rgb(255,20,147)" x1="888.078742060657" x2="707.101807941637" y1="210" y2="350" />
	<line stroke-width="2" style="stroke:rgb(70,130,180)" x1="897.335709674036" x2="868.562383244955" y1="210" y2="350" />
	<line stroke-width="2" style="stroke:rgb(70,130,180)" x1="897.407693051395" x2="868.634366622314" y1="210" y2="350" />
	<!-- 
	Generated using the Perl SVG Module V2.59
	by Ronan Oger
	Info: http://www.roitsystems.com/
 -->
</svg>